<svg xmlns="http://www.w3.org/2000/svg" viewBox="0 0 272 92">
  <path fill="#EA4335" d="M95.2 46.2c0-24.4-20-44.3-44.6-44.3S6 21.8 6 46.2s20 44.3 44.6 44.3S95.2 70.6 95.2 46.2zm-62.3 0c0-14.7 11.9-26.6 26.6-26.6s26.6 11.9 26.6 26.6-11.9 26.6-26.6 26.6-26.6-11.9-26.6-26.6z"/>
  <path fill="#FBBC05" d="M157.4 46.2c0-24.4-20-44.3-44.6-44.3s-44.6 19.9-44.6 44.3 20 44.3 44.6 44.3 44.6-19.9 44.6-44.3zm-62.3 0c0-14.7 11.9-26.6 26.6-26.6s26.6 11.9 26.6 26.6-11.9 26.6-26.6 26.6-26.6-11.9-26.6-26.6z"/>
  <path fill="#4285F4" d="M219.5 46.2c0-24.4-20-44.3-44.6-44.3s-44.6 19.9-44.6 44.3 20 44.3 44.6 44.3 44.6-19.9 44.6-44.3zm-62.3 0c0-14.7 11.9-26.6 26.6-26.6s26.6 11.9 26.6 26.6-11.9 26.6-26.6 26.6-26.6-11.9-26.6-26.6z"/>
  <path fill="#34A853" d="M259.3 28.7v54.6c0 24.1-17.2 33.6-33.3 33.6-16.7 0-27.8-11.8-32.3-22.3l11.3-4.7c2 6.5 7.5 14.7 21 14.7 14.4 0 22.4-9.2 22.4-22.9V50h-1.2c-4.5 5.2-12.3 9.2-21.2 9.2-20.2 0-34.5-15.8-34.5-34.5s14.3-34.5 34.5-34.5c8.9 0 16.7 4 21.2 9.2h1.2V28.7h12.1zm-33.3 20.6c-8.9 0-14.7-8.9-14.7-14.7s5.8-14.7 14.7-14.7 14.7 8.9 14.7 14.7-5.8 14.7-14.7 14.7z"/>
  <path fill="#EA4335" d="M265.9 2.1v88.2h-12.1V2.1h12.1z"/>
</svg>